<svg height="512" viewBox="0 0 42 60" width="512" xmlns="http://www.w3.org/2000/svg"><g id="Page-1" fill="none" fill-rule="evenodd"><g id="005---French-Man" fill="rgb(0,0,0)" fill-rule="nonzero"><path id="Shape" d="m2 60h38c1.1045695 0 2-.8954305 2-2v-11c-.0016774-.3341804-.0217076-.6680165-.06-1 0-.04 0-.08-.007-.12-.5673274-4.5020076-4.395387-7.878825-8.933-7.88h-3.26c-.3517799-1.2158073-1.1525093-2.2524659-2.24-2.9-.1562342-.0720865-.3285991-.102078-.5-.087v-1.854c3.308713-1.4485249 5.5816459-4.5658319 5.949-8.159h1.051c1.6568542 0 3-1.3431458 3-3v-2c0-1.6568542-1.3431458-3-3-3h-1v-5.134c.852-.5 2-1.749 2-4.866 0-4.252-5.495-7-14-7-7.248 0-18 4.2-18 10 0 2.037.542 3.52 1.61 4.407.81172344.6327742 1.82163561.9570091 2.85.915.51651384-.0054984 1.03165507-.0543365 1.54-.146v1.824h-1c-1.65685425 0-3 1.3431458-3 3v2c0 1.6568542 1.34314575 3 3 3h1.051c.36735413 3.5931681 2.640287 6.7104751 5.949 8.159v1.854c-.1541444-.0047121-.307245.0267986-.447.092-1.091604.6436294-1.8971792 1.6787559-2.253 2.895h-3.3c-4.53727704.0011114-8.36521073 3.3773892-8.933 7.879-.005.04 0 .081-.007.121-.0381294.3319978-.05815903.6658249-.06 1v11c0 1.1045695.8954305 2 2 2zm15-13c0 .5522847.4477153 1 1 1 1.2209674-.0330156 2.4132882-.377219 3.464-1h18.536v4h-6v-1c0-.5522847-.4477153-1-1-1s-1 .4477153-1 1v1h-22v-1c0-.5522847-.44771525-1-1-1s-1 .4477153-1 1v1h-6v-4zm3.385-4.9c.168-.025.333-.045.507-.076.4014809.7778584.4798203 1.6827152.218 2.518-.1346152.2604072-.3243482.4883598-.556.668-.4468896.3233851-.958687.5458464-1.5.652.1260945-1.3446946.5833845-2.6372002 1.331-3.762zm11.615 10.9v5h-22v-5zm-30 0h6v5h-6zm32 5v-5h6v5zm-1-18c3.0949422.0020652 5.821838 2.0346352 6.708 5h-16.63c.2625834-.8982077.2601527-1.8531407-.007-2.75.244.013.493.029.725.029 2.0307893.0605377 4.038981-.4397802 5.804-1.446.2802689-.1845708.4492731-.4974162.45-.833zm-5.021-.8c.015.07.026.144.036.222-1.8668807.8012453-3.9221351 1.0588021-5.929.743.0791899-.2014049.1847799-.3913995.314-.565.454-.606 1.5-1.5 3.925-2.324.174-.06.361-.12.554-.18.6055826.5479149.9956608 1.2940282 1.1 2.104zm6.021-20.2c.5522847 0 1 .4477153 1 1v2c0 .5522847-.4477153 1-1 1h-1v-4zm-28.113-6.132c-.69366746-.7843419-1.01675235-1.8289952-.887-2.868 0-4.045 9.162-8 16-8 7.065 0 12 2.056 12 5 .1217743 1.06222656-.1613884 2.13131753-.793 2.994-1.185-.978-4.261-2.569-11.317-1.784-7 .777-9.476 3.24-10.668 4.424-.136.135-.3.3-.4.378-.2.017-.428.059-.7.11-.891.168-2.388.449-3.235-.254zm1.113 9.132v-2c0-.5522847.44771525-1 1-1h1v4h-1c-.55228475 0-1-.4477153-1-1zm4 2v-9.38c.2223553-.1751772.4331299-.3645737.631-.567 1.111-1.1 3.178-3.155 9.479-3.855 6.782-.751 9.256.854 9.89 1.4v12.402c-.0049599 4.4162219-3.5837781 7.9950401-8 8h-4c-4.4162219-.0049599-7.9950401-3.5837781-8-8zm8 10h4c.6716974.0007873 1.3417594-.0662189 2-.2v1.833c-1.5086564.498152-2.8733056 1.3562061-3.976 2.5-1.1140404-1.1572488-2.4961321-2.0220864-4.024-2.518v-1.815c.6582406.1337811 1.3283026.2007873 2 .2zm-3.83 3.093c3.558 1.093 4.533 2.357 4.789 3.069-2.0058614.3288269-4.0639906.0726023-5.928-.738.0629631-.8953198.4713708-1.7311391 1.139-2.331zm-6.17 2.907h3c-.00005.3342785.1669303.6464754.445.832 1.6923818.9608909 3.6089578 1.4566821 5.555 1.437-.4048969.8672084-.6879114 1.7862483-.841 2.731h-14.867c.88644575-2.9651663 3.61316693-4.9976061 6.708-5z"/><path id="Shape" d="m24 27c1.5133262-.0148788 2.9161541-.7951477 3.727-2.073.6502863-1.0153214.714209-2.299102.168-3.374-.2468713-.4942948-.8477051-.6948713-1.342-.448-.4942948.2468713-.6948713.8477052-.448 1.342.2399786.4542854.2095921 1.0039358-.079 1.429-.4504809.6838776-1.207335 1.103771-2.026 1.124-1.3 0-2-.515-2-1 0-.5522847-.4477153-1-1-1s-1 .4477153-1 1c0 .485-.7 1-2 1-.818665-.020229-1.5755191-.4401224-2.026-1.124-.2885921-.4250642-.3189786-.9747146-.079-1.429.1596977-.3197527.1366785-.7004141-.0603866-.9985927-.1970651-.2981787-.5382372-.4685741-.895-.4470001-.3567629.0215741-.6749157.2318401-.8346134.5515928-.546209 1.074898-.4822863 2.3586786.168 3.374.8108459 1.2778523 2.2136738 2.0581212 3.727 2.073 1.0816928.0493526 2.1454918-.2889355 3-.954.8545082.6650645 1.9183072 1.0033526 3 .954z"/></g></g></svg>